<svg width="737" height="242" viewBox="0 0 737 242" fill="none" xmlns="http://www.w3.org/2000/svg">
<rect x="546.988" y="81.7734" width="190" height="160" fill="#8C63FE"/>
<path d="M185.203 9.28125C185.203 6.40234 186.02 4.14648 187.652 2.51367C189.328 0.837891 191.605 0 194.484 0C197.363 0 199.641 0.837891 201.316 2.51367C202.992 4.14648 203.83 6.40234 203.83 9.28125C203.83 12.1172 202.971 14.3516 201.252 15.9844C199.576 17.6172 197.32 18.4336 194.484 18.4336C191.691 18.4336 189.436 17.6172 187.717 15.9844C186.041 14.3516 185.203 12.1172 185.203 9.28125ZM203.057 99.7734H185.912V27.9727H203.057V99.7734Z" fill="#1B1B1B"/>
<path d="M157.676 26.6191C170.695 26.6191 177.205 35.3848 177.205 52.916V99.7734H159.932V56.9766C159.932 51.6914 159.287 47.7383 157.998 45.1172C156.752 42.4961 154.754 41.1855 152.004 41.1855C148.352 41.1855 145.645 43.0117 143.883 46.6641C142.164 50.3164 141.305 56.5254 141.305 65.291V99.7734H124.16V27.9727H137.76L139.822 37.1895H140.918C142.465 33.8379 144.678 31.2383 147.557 29.3906C150.479 27.543 153.852 26.6191 157.676 26.6191Z" fill="#1B1B1B"/>
<path d="M96.8906 9.28125C96.8906 6.40234 97.707 4.14648 99.3398 2.51367C101.016 0.837891 103.293 0 106.172 0C109.051 0 111.328 0.837891 113.004 2.51367C114.68 4.14648 115.518 6.40234 115.518 9.28125C115.518 12.1172 114.658 14.3516 112.939 15.9844C111.264 17.6172 109.008 18.4336 106.172 18.4336C103.379 18.4336 101.123 17.6172 99.4043 15.9844C97.7285 14.3516 96.8906 12.1172 96.8906 9.28125ZM114.744 99.7734H97.5996V27.9727H114.744V99.7734Z" fill="#1B1B1B"/>
<path d="M69.4316 26.6191C75.791 26.6191 80.6035 28.8535 83.8691 33.3223C87.1777 37.791 88.832 44.3223 88.832 52.916V99.7734H71.5586V56.9766C71.5586 46.4492 68.959 41.1855 63.7598 41.1855C60.0215 41.1855 57.3145 43.0547 55.6387 46.793C54.0059 50.5312 53.1895 56.5684 53.1895 64.9043V99.7734H35.916V56.9766C35.916 46.4492 33.2734 41.1855 27.9883 41.1855C24.293 41.1855 21.6074 43.0547 19.9316 46.793C18.2559 50.5312 17.418 56.6973 17.418 65.291V99.7734H0.273438V27.9727H13.873L15.9355 37.1895H17.0312C18.6641 33.666 20.9414 31.0234 23.8633 29.2617C26.8281 27.5 30.0938 26.6191 33.6602 26.6191C42.4688 26.6191 48.3125 30.7656 51.1914 39.0586H51.8359C55.4883 30.7656 61.3535 26.6191 69.4316 26.6191Z" fill="#1B1B1B"/>
<path d="M664.242 164.712C659.215 164.712 655.188 166.852 652.09 171.236L652.087 171.241C648.963 175.603 647.364 181.19 647.364 188.074C647.364 199.604 648.992 208.535 652.165 214.947L652.471 215.533C655.658 221.485 659.598 224.221 664.242 224.221C669.202 224.221 673.029 221.839 675.78 216.863C678.563 211.83 680.01 204.401 680.01 194.466C680.01 184.466 678.563 177.041 675.783 172.073L675.776 172.062C674.42 169.555 672.782 167.727 670.886 166.524C668.994 165.325 666.791 164.712 664.242 164.712ZM689.05 115.12L687.705 114.628C684.127 113.316 680.078 112.65 675.544 112.65C666.407 112.65 659.435 116.986 654.558 125.843C649.902 134.297 647.171 146.861 646.448 163.634C648.469 159.836 651.05 156.773 654.205 154.474L654.211 154.469C658.096 151.684 662.564 150.299 667.577 150.299C676.574 150.299 683.644 154.248 688.698 162.048C693.789 169.747 696.275 180.436 696.275 194.003C696.275 207.596 693.439 218.535 687.662 226.724L687.66 226.727C681.854 234.893 673.925 239.005 663.965 239.005C658.547 239.005 653.734 237.695 649.558 235.051C645.387 232.41 641.905 228.471 639.093 223.289L639.091 223.285C633.542 212.944 630.82 197.99 630.82 178.533C630.82 151.372 634.402 131.124 641.69 117.93L641.691 117.928C645.375 111.285 650.03 106.257 655.671 102.895C661.313 99.5315 667.888 97.8672 675.358 97.8672C680.676 97.8672 685.049 98.5226 688.424 99.8857L689.05 100.138V115.12Z" fill="white" stroke="white" stroke-width="2"/>
<path d="M588.276 97.7734C598.256 97.7735 606.203 100.878 611.985 107.175C617.753 113.455 620.586 121.902 620.586 132.399C620.586 139.958 619.618 147.123 617.676 153.889L617.675 153.892C615.73 160.605 612.476 167.636 607.932 174.982C604.559 181.031 597.929 190.971 588.07 204.772L588.063 204.783C586.709 206.63 584.428 209.805 581.217 214.313C578.613 217.989 576.745 220.612 575.615 222.182H623.551V237.15H556.984V224.821L557.155 224.568L583.37 185.662L584.889 183.392C592.318 172.202 597.357 163.391 600.042 156.938L600.305 156.287C602.974 149.539 604.32 141.737 604.32 132.863C604.32 127.513 602.78 122.85 599.709 118.834L599.704 118.828L599.699 118.821C596.749 114.83 592.701 112.835 587.442 112.835C583.606 112.835 580.192 113.494 577.186 114.791C574.166 116.093 570.891 118.307 567.359 121.473L566.654 122.104L565.985 121.435C565.898 121.347 565.656 121.061 565.328 120.668C564.975 120.245 564.47 119.635 563.813 118.84C562.5 117.248 560.577 114.908 558.045 111.82L557.447 111.092L558.139 110.452C563.134 105.832 567.925 102.542 572.514 100.63C577.104 98.7171 582.366 97.7734 588.276 97.7734Z" fill="white" stroke="white" stroke-width="2"/>
<path d="M482.842 151.168L484.123 163.02H485.084C486.899 158.749 489.542 155.439 493.012 153.09C496.482 150.688 500.326 149.486 504.543 149.486C511.803 149.486 517.195 151.942 520.719 156.854C524.296 161.712 526.084 169.212 526.084 179.355V238.773H513.912V181.117C513.912 167.13 509.988 160.137 502.141 160.137C495.628 160.137 491.143 163.073 488.688 168.945C486.285 174.764 485.084 184.801 485.084 199.055V238.773H472.992V151.168H482.842Z" fill="#1B1B1B"/>
<path d="M403.398 194.811C403.398 180.236 405.908 169.052 410.926 161.258C415.997 153.41 423.151 149.486 432.387 149.486C441.622 149.486 448.829 153.517 454.008 161.578C459.186 169.586 461.775 180.77 461.775 195.131C461.775 209.492 459.213 220.622 454.088 228.523C448.963 236.424 441.783 240.375 432.547 240.375C423.365 240.375 416.211 236.424 411.086 228.523C405.961 220.569 403.398 209.331 403.398 194.811ZM432.547 160.297C426.728 160.297 422.484 163.126 419.814 168.785C417.199 174.444 415.891 183.092 415.891 194.73C415.891 206.368 417.225 215.097 419.895 220.916C422.617 226.682 426.835 229.564 432.547 229.564C443.651 229.564 449.203 218.033 449.203 194.971C449.203 171.855 443.651 160.297 432.547 160.297Z" fill="#1B1B1B"/>
<path d="M351.662 114.172V150.447C351.662 154.024 351.502 158.188 351.182 162.939H351.982C353.744 158.775 356.307 155.492 359.67 153.09C363.087 150.688 366.824 149.486 370.881 149.486C378.408 149.486 383.907 151.969 387.377 156.934C390.9 161.898 392.662 169.399 392.662 179.436V238.773H380.49V181.117C380.49 173.75 379.529 168.411 377.607 165.102C375.739 161.792 372.696 160.137 368.479 160.137C362.766 160.137 358.522 162.833 355.746 168.225C353.023 173.563 351.662 181.758 351.662 192.809V238.773H339.57V114.172H351.662Z" fill="#1B1B1B"/>
<path d="M317.223 151.168H331.797V161.258H317.223V216.592C317.223 221.343 317.837 224.733 319.064 226.762C320.292 228.737 322.321 229.725 325.15 229.725C328.033 229.725 330.569 229.271 332.758 228.363V238.133C330.035 239.628 326.298 240.375 321.547 240.375C315.354 240.375 311.057 238.026 308.654 233.328C306.252 228.63 305.051 221.156 305.051 210.906V161.258H296.883V155.092L305.691 151.088L309.215 130.988H317.223V151.168Z" fill="#1B1B1B"/>
<path d="M249.23 164.861L244.586 155.973C251.526 151.595 258.92 149.406 266.768 149.406C274.615 149.406 280.434 151.835 284.225 156.693C288.015 161.551 289.91 169.132 289.91 179.436V238.773H280.621L278.539 226.602H278.139C273.761 235.677 267.328 240.215 258.84 240.215C252.434 240.215 247.442 237.973 243.865 233.488C240.288 229.004 238.5 222.571 238.5 214.189C238.5 205.808 241.009 199.242 246.027 194.49C251.046 189.686 258.253 187.07 267.648 186.643L277.818 186.162V179.275C277.818 172.442 276.857 167.451 274.936 164.301C273.014 161.098 269.677 159.496 264.926 159.496C260.174 159.496 254.943 161.285 249.23 164.861ZM277.818 203.539V195.051C276.003 195.104 273.281 195.238 269.65 195.451C263.351 195.771 258.68 197.533 255.637 200.736C252.647 203.886 251.152 208.531 251.152 214.67C251.152 225.294 254.809 230.605 262.123 230.605C267.035 230.605 270.878 228.23 273.654 223.479C276.43 218.674 277.818 212.027 277.818 203.539Z" fill="#1B1B1B"/>
<path d="M198.613 238.773H186.441V114.172H198.613V178.475L197.893 194.09H198.613L203.658 184.721L223.838 151.088H236.811L215.99 184.641L238.492 238.773H225.76L207.822 194.25L198.613 205.221V238.773Z" fill="#1B1B1B"/>
<path d="M163.531 240.375C154.189 240.375 147.115 236.585 142.311 229.004C137.559 221.37 135.184 210.186 135.184 195.451C135.184 164.808 144.633 149.486 163.531 149.486C169.617 149.486 174.849 150.768 179.227 153.33L175.223 163.26C171.432 161.285 167.936 160.297 164.732 160.297C153.361 160.297 147.676 171.962 147.676 195.291C147.676 207.036 149.09 215.684 151.92 221.236C154.803 226.788 159.234 229.564 165.213 229.564C169.163 229.564 173.594 228.443 178.506 226.201V236.691C173.755 239.147 168.763 240.375 163.531 240.375Z" fill="#1B1B1B"/>
<path d="M83.6094 164.861L78.9648 155.973C85.9049 151.595 93.2988 149.406 101.146 149.406C108.994 149.406 114.813 151.835 118.604 156.693C122.394 161.551 124.289 169.132 124.289 179.436V238.773H115L112.918 226.602H112.518C108.14 235.677 101.707 240.215 93.2188 240.215C86.8125 240.215 81.821 237.973 78.2441 233.488C74.6673 229.004 72.8789 222.571 72.8789 214.189C72.8789 205.808 75.388 199.242 80.4062 194.49C85.4245 189.686 92.6315 187.07 102.027 186.643L112.197 186.162V179.275C112.197 172.442 111.236 167.451 109.314 164.301C107.393 161.098 104.056 159.496 99.3047 159.496C94.5534 159.496 89.3216 161.285 83.6094 164.861ZM112.197 203.539V195.051C110.382 195.104 107.66 195.238 104.029 195.451C97.7298 195.771 93.0586 197.533 90.0156 200.736C87.026 203.886 85.5312 208.531 85.5312 214.67C85.5312 225.294 89.1882 230.605 96.502 230.605C101.413 230.605 105.257 228.23 108.033 223.479C110.809 218.674 112.197 212.027 112.197 203.539Z" fill="#1B1B1B"/>
<path d="M61.7402 238.773H49.248V183.279H12.4121V238.773H0V121.699H12.4121V171.908H49.248V121.699H61.7402V238.773Z" fill="#1B1B1B"/>
</svg>
